<?xml version="1.0" encoding="iso-8859-1"?>
<!-- Uploaded to: SVG Repo, www.svgrepo.com, Generator: SVG Repo Mixer Tools -->
<svg height="100%" version="1.1" id="Layer_1" xmlns="http://www.w3.org/2000/svg"
	xmlns:xlink="http://www.w3.org/1999/xlink"
	viewBox="0 0 512.001 512.001" xml:space="preserve">
<path style="fill:#7C84E8;" d="M337.365,135.681c-7.904,35.283-40.182,64.557-81.252,64.557H256
	c-46.301-0.111-83.478-37.398-83.478-83.478c0-41.517,24.821-59.548,71.012-111.304c3.115-3.562,7.792-5.343,12.466-5.343
	c4.674,0,9.351,1.781,12.466,5.343C307.645,49.42,349.717,80.362,337.365,135.681z"/>
<path style="fill:#515BE0;" d="M337.365,135.681c-7.904,35.283-40.182,64.557-81.252,64.557H256V0.112
	c4.674,0,9.351,1.781,12.466,5.343C307.645,49.42,349.717,80.362,337.365,135.681z"/>
<path style="fill:#F1CD99;" d="M209.282,263.481l-57-57.011c-13.265-13.255-33.404-16.648-52.108-9.249v-69.331
	c0-27.619-22.468-50.087-50.087-50.087S0,100.27,0,127.889v153.125c0,13.37,5.207,25.946,14.674,35.418l47.206,47.212
	c3.163,3.163,4.902,7.358,4.902,11.815c0,25.557,0,45.236,0,69.646h166.957c0-24.594,0-97.904,0-122.597
	C233.739,300.198,225.054,279.236,209.282,263.481z"/>
<path style="fill:#F5DDB3;" d="M100.174,411.715V375.46c0-13.37-5.207-25.946-14.674-35.418L38.293,292.83
	c-3.163-3.163-4.902-7.359-4.902-11.816V127.889c0-9.206,7.49-16.696,16.696-16.696s16.696,7.49,16.696,16.696v119.733
	c0,12.407,4.686,25.422,14.663,35.413c0.006,0.004,0.011,0.006,0.017,0.011l56.995,56.994c6.521,6.521,17.087,6.521,23.609,0
	c6.521-6.516,6.521-17.092,0-23.609l-56.989-56.994c-7.743-7.743-7.182-24.626,6.12-30.767c5.054-2.342,12.663-3.386,17.478,1.414
	l57,57.011c9.468,9.451,14.674,22.027,14.674,35.413v89.207H100.174z"/>
<path style="fill:#F0C78D;" d="M461.913,77.802c-27.619,0-50.087,22.468-50.087,50.087v66.91
	c-18.386-6.567-38.125-2.297-52.108,11.677l-57,57c-15.772,15.761-24.457,36.723-24.457,59.032c0,67.915,0,71.195,0,122.597h166.957
	c0-28.206,0-41.338,0-69.646c0-4.457,1.74-8.652,4.892-11.809l47.229-47.223c9.456-9.468,14.663-22.044,14.663-35.413V127.889
	C512,100.269,489.532,77.802,461.913,77.802z"/>
<path style="fill:#F3D3A6;" d="M478.609,281.014c0,4.457-1.74,8.652-4.892,11.809l-47.229,47.223
	c-9.455,9.468-14.662,22.044-14.662,35.414v36.255H311.652v-89.206c0-13.385,5.207-25.962,14.674-35.418l57-57.006
	c7.326-7.32,15.772-4.609,18.196-3.614c13.391,5.55,12.701,25.669,5.403,32.967c-0.006,0.004-0.006,0.011-0.006,0.011
	l-56.983,56.983c-6.521,6.516-6.521,17.092,0,23.609c6.521,6.521,17.087,6.521,23.609,0l57.011-57.006
	c12.551-12.567,14.661-25.523,14.661-41.141V127.889c0-9.206,7.49-16.696,16.696-16.696c9.206,0,16.696,7.49,16.696,16.696V281.014z
	"/>
<path style="fill:#FF0C38;" d="M428.522,511.889H306.087c-27.662,0-50.087-22.424-50.087-50.087l0,0
	c0-27.662,22.424-50.087,50.087-50.087h122.435c27.662,0,50.087,22.424,50.087,50.087l0,0
	C478.609,489.465,456.184,511.889,428.522,511.889z"/>
<path style="fill:#FF6243;" d="M205.913,511.889H83.478c-27.662,0-50.087-22.424-50.087-50.087l0,0
	c0-27.662,22.424-50.087,50.087-50.087h122.435c27.662,0,50.087,22.424,50.087,50.087l0,0
	C256,489.465,233.576,511.889,205.913,511.889z"/>
</svg>